<svg xmlns="http://www.w3.org/2000/svg" width="678.62" height="550.25749" viewBox="0 0 678.62 550.25749" xmlns:xlink="http://www.w3.org/1999/xlink"><path d="m489.79345,549.47598h-193.00635c-58.68451,0-106.42763-47.74312-106.42763-106.42763V175.90235c0-58.68451,47.74312-106.42763,106.42763-106.42763h193.00635c58.68451,0,106.42763,47.74312,106.42763,106.42763v267.146c0,58.68451-47.74312,106.42763-106.42763,106.42763Z" fill="#c7c7c8" stroke-width="0"/><path d="m487.08272,531.25881h-185.04296c-52.70369,0-95.58139-42.8777-95.58139-95.58139v-253.67509c0-52.70369,42.8777-95.58139,95.58139-95.58139h185.04296c52.70369,0,95.58139,42.8777,95.58139,95.58139v253.67509c0,52.70369-42.8777,95.58139-95.58139,95.58139Z" fill="#fff" stroke-width="0"/><path d="m602.93533,257.5776c-7.0081,0-12.70965-5.70155-12.70965-12.70965v-55.92248c0-7.0081,5.70155-12.70965,12.70965-12.70965s12.70965,5.70155,12.70965,12.70965v55.92248c0,7.0081-5.70155,12.70965-12.70965,12.70965Z" fill="#c7c7c8" stroke-width="0"/><rect x="237.10458" y="321.90481" width="312" height="133" rx="24.49179" ry="24.49179" fill="#c7c7c8" stroke-width="0"/><path d="m678.62,548.40481c0,.83002-.66998,1.5-1.5,1.5H1.5c-.83,0-1.5-.66998-1.5-1.5s.67-1.5,1.5-1.5h675.62c.83002,0,1.5.66998,1.5,1.5Z" fill="#2f2e43" stroke-width="0"/><path d="m242.64911,260.41646l-14.33115-28.24135-16.48918,8.36748,14.33115,28.24135c-1.53066,4.4503-1.19119,9.91105,1.36188,14.94221,4.46722,8.80322,13.99451,12.94256,21.27991,9.24556,7.28541-3.697,9.57-13.83031,5.10278-22.63353-2.55308-5.03116-6.76002-8.52935-11.25539-9.92173Z" fill="#9d616a" stroke-width="0"/><polyline points="145.38664 132.72908 217.78666 268.04677 246.09478 252.90087 182.67215 114.24919" fill="#d0d0d0" stroke-width="0"/><path d="m184.93536,164.44124l19.73269,91.64862-86,3s11.26731-63.64862,7.26731-74.64862l59-20Z" fill="#9d616a" stroke-width="0"/><rect x="201.36573" y="505.48938" width="20.09651" height="26.4876" transform="translate(422.82798 1037.46637) rotate(-180)" fill="#9d616a" stroke-width="0"/><path d="m197.29688,547.6612c-1.71896-1.39153-2.64685-2.94537-2.75774-4.61853-.12691-1.91377.83068-3.96712,2.84573-6.10298.04837-.61461.67377-8.22931,2.06741-9.59286-.11683-.40761-.8267-3.10986.33696-4.86453.54819-.82654,1.43178-1.30831,2.6263-1.43193l.05204-.00531.02579.04548c.03368.05947,3.42487,5.94997,8.52603,6.46714,2.92458.29648,5.85268-1.2082,8.70302-4.4735.10245-.24123.90781-4.21835,1.42763-6.85091l.02079-.10526,27.79474,14.60962,16.24708,4.49569c2.04201.56507,3.46816,2.43946,3.46816,4.55821,0,1.80664-1.05215,3.4798-2.68046,4.2625l-7.87527,3.78558c-3.29065,1.58181-6.95988,2.41789-10.61105,2.41789h-42.7182c-2.76767,0-5.43085-.92203-7.49896-2.59629Z" fill="#090814" stroke-width="0"/><rect x="64.72255" y="495.68869" width="20.09651" height="26.4876" transform="translate(4.40552 1018.49276) rotate(-163.77981)" fill="#9d616a" stroke-width="0"/><path d="m53.13517,532.76571c-1.26184-1.8163-1.71877-3.56747-1.35788-5.20501.41272-1.87305,1.90575-3.57717,4.4372-5.06515.21813-.57664,2.94564-7.71354,4.66468-8.63353.00168-.42401.07489-3.217,1.68236-4.57678.75725-.64052,1.74023-.85629,2.92174-.64133l.05146.00944.01206.05087c.01573.06651,1.62654,6.6698,6.38019,8.59128,2.72535,1.1016,5.9572.47472,9.60618-1.86442.16575-.20301,2.04999-3.79686,3.28447-6.17943l.04936-.09527,22.60748,21.79198,14.34459,8.85503c1.80289,1.11297,2.6487,3.31111,2.05687,5.34553-.50465,1.73472-1.98228,3.0474-3.76441,3.34411l-8.61922,1.43511c-3.60152.59967-7.35823.37755-10.86407-.64234l-41.01781-11.93245c-2.6575-.77309-4.95713-2.40233-6.47525-4.58763Z" fill="#090814" stroke-width="0"/><path d="m109.37827,212.48938l86,2s52.25955,150.64112,50.25955,293.64112h-71.74075s-4.25925-166-4.25925-166l-12.46151,172.44343-94.53849-5.44343,46.74045-296.64112Z" fill="#090814" stroke-width="0"/><path d="m191.63217,44.2428c0-18.04382-14.62744-32.67126-32.67133-32.67126-18.04382,0-32.67126,14.62744-32.67126,32.67126,0,11.37256,5.81384,21.38379,14.6283,27.23511-3.72998,9.99146-10.68756,18.85339-10.68756,18.85339l32.19763,26.83167,6.31628-41.7406c13.2641-4.15784,22.88794-16.54407,22.88794-31.17957Z" fill="#9d616a" stroke-width="0"/><path d="m168.66805,91.08986l-37-9-23.7169,30.36705c-5.64945,11.52487-6.54097,24.80894-2.48216,36.98536l19.66632,58.99896s60-1,73-36l3.72683-7.76424c5.09414-10.61279,3.93865-23.1672-3.00706-32.67186l-30.18703-40.91527Z" fill="#d0d0d0" stroke-width="0"/><path d="m129.28444,286.14733l.68689-31.66203-18.4864-.40105-.68689,31.66203c-3.44909,3.20185-5.72592,8.1769-5.84829,13.81745-.21411,9.86949,6.2336,18.01383,14.40144,18.19103,8.16784.1772,14.96269-7.67985,15.17681-17.54935.12237-5.64055-1.93671-10.70966-5.24355-14.05808Z" fill="#9d616a" stroke-width="0"/><polyline points="103.76286 127.67744 103.76286 281.14614 135.86812 281.14614 145.35657 128.97293" fill="#d0d0d0" stroke-width="0"/><path d="m141.72972,49.07456s25.73354-8.53737,19.3901-18.22874c0,0,27.31205,4.75758,28.01688,0,.70483-4.75758,0-35.24135-37.00342-30.30756-37.00342,4.93379-32.06963,35.94618-32.06963,35.94618,0,0,2.70147,29.97848,22.61283,36.14572,0,0-15.3957-29.72283-.94675-23.5556Z" fill="#090814" stroke-width="0"/><path d="m133.61877,18.05194s-7.59856-5.48785-16.46354-3.79928c-3.10274.591-6.38648,2.86265-9.34443,5.5661-5.95435,5.44205-10.37251,12.3395-13.24764,19.87633-7.74879,20.31257-24.01094,71.12026,4.43996,77.34915,35.671,7.80963,37.88725-67.64826,37.88725-67.64826l-3.2716-31.34405Z" fill="#090814" stroke-width="0"/><rect x="237.10458" y="163.90481" width="312" height="133" rx="24.49179" ry="24.49179" fill="#6c63ff" stroke-width="0"/></svg>