<svg width="50" height="52" viewBox="0 0 50 52" fill="none" xmlns="http://www.w3.org/2000/svg">
<path d="M39.1896 10.8093C50.3427 21.9594 53.3563 37.0277 45.9214 44.4595C38.4865 51.8944 23.4213 48.8808 12.2697 37.7307C11.8909 37.3519 11.5454 36.958 11.1848 36.5701L17.8773 29.8776C26.5501 38.5504 37.5986 41.5656 42.5532 36.608C47.5093 31.6519 44.4957 20.6033 35.8244 11.9305L35.8577 11.9623L35.8259 11.929C25.9152 2.01683 12.3545 -0.493796 5.54086 6.31988C2.24539 9.61536 1.15144 14.4912 1.99842 19.7639C0.698408 13.5775 1.77114 7.84565 5.54086 4.07745C12.9742 -3.35594 28.0395 -0.34228 39.1896 10.8093Z" fill="#FDD888"/>
<path d="M24.853 51.5158C24.4712 51.5158 24.0909 51.3991 23.7636 51.1658L16.0727 45.6491L8.38171 51.1658C7.72565 51.6355 6.84686 51.6355 6.19534 51.1582C5.54382 50.6855 5.26957 49.8491 5.51351 49.0839L8.38323 39.8263L0.760453 34.4551C0.111964 33.9778 -0.15622 33.1384 0.0907513 32.3717C0.340753 31.6081 1.05136 31.0884 1.85591 31.0823L11.1696 31.0641L14.3014 22.0383C14.556 21.2747 15.2696 20.7595 16.0742 20.7595C16.8787 20.7595 17.5924 21.2747 17.8469 22.0383L20.6742 31.0641L30.2909 31.0823C31.097 31.0884 31.8091 31.6081 32.0561 32.3717C32.3046 33.1384 32.0349 33.9778 31.3864 34.4551L23.7636 39.8263L26.6318 49.0839C26.8773 49.8491 26.6 50.687 25.9515 51.1582C25.6227 51.3976 25.2379 51.5158 24.853 51.5158Z" fill="#FFAC33"/>
</svg>
